<?xml version="1.0" encoding="utf-8"?>
<!-- Generator: Adobe Illustrator 16.0.4, SVG Export Plug-In . SVG Version: 6.00 Build 0)  -->
<!DOCTYPE svg PUBLIC "-//W3C//DTD SVG 1.1//EN" "http://www.w3.org/Graphics/SVG/1.1/DTD/svg11.dtd">
<svg version="1.1" id="Layer_1" xmlns="http://www.w3.org/2000/svg" xmlns:xlink="http://www.w3.org/1999/xlink" x="0px" y="0px"
	 width="300px" height="300px" viewBox="0 0 300 300" enable-background="new 0 0 300 300" xml:space="preserve">
<path fill="#FFFFFF" d="M276.142,22.237h1.739c2.144,0,3.899-0.711,3.899-2.591c0-1.414-1.036-2.723-3.76-2.723
	c-0.852,0-1.432,0-1.88,0.062L276.142,22.237L276.142,22.237z M276.142,31.371h-2.916V15.175c1.354-0.193,2.715-0.457,4.857-0.457
	c2.591,0,4.207,0.527,5.243,1.309c0.904,0.711,1.423,1.8,1.423,3.364c0,2.073-1.361,3.425-3.101,3.882v0.123
	c1.414,0.264,2.318,1.555,2.645,3.961c0.387,2.529,0.711,3.487,0.975,4.014h-2.978c-0.388-0.527-0.721-2.011-1.045-4.137
	c-0.316-1.958-1.414-2.731-3.427-2.731h-1.678L276.142,31.371L276.142,31.371z M278.795,10.836c-6.412,0-11.594,5.375-11.594,12.112
	c0,6.737,5.182,12.112,11.654,12.112c6.411,0.07,11.532-5.375,11.532-12.112c0-6.737-5.121-12.112-11.532-12.112H278.795z
	 M278.856,8.377c8.02,0,14.432,6.482,14.432,14.51c0,8.16-6.412,14.633-14.492,14.633c-8.09,0-14.633-6.473-14.633-14.633
	c0-8.028,6.543-14.51,14.633-14.51H278.856z"/>
<path fill="#FFFFFF" d="M70.941,268.111l-2.433-14.412c-0.694-4.154-1.581-10.646-2.257-15.143h-0.265
	c-0.711,4.53-1.703,11.207-2.433,15.178l-2.618,14.377H70.941z M59.629,277.502l-3.162,15.994H44.786l14.57-66.541h14.316
	l13.236,66.541H75.167l-3.092-15.994H59.629z"/>
<path fill="#FFFFFF" d="M113.496,263.773c0-0.887,0-1.924-0.177-2.873c-0.465-3.285-2.213-6.244-5.023-6.244
	c-4.822,0-6.596,6.947-6.596,15.072c0,9.336,2.528,14.649,6.429,14.649c1.783,0,3.838-0.914,4.954-4.832
	c0.271-0.78,0.413-1.825,0.413-3.047V263.773z M125.485,225.189v54.508c0,4.32,0.221,9.635,0.396,13.789h-10.355l-0.676-5.543
	h-0.246c-1.738,3.418-5.523,6.324-10.048,6.324c-9.916,0-14.834-10.943-14.834-24.761c0-16.836,7.333-25.022,15.326-25.022
	c4.181,0,6.886,2.047,8.248,5.008h0.202v-24.303H125.485z"/>
<path fill="#FFFFFF" d="M150.455,285.072c4.575,0,5.709-8.625,5.709-15.766c0-6.789-1.134-15.636-5.91-15.636
	c-5.061,0-6.123,8.847-6.123,15.636c0,8.194,1.335,15.766,6.218,15.766H150.455z M150.227,294.268
	c-11.049,0-17.979-8.871-17.979-24.75c0-17.33,8.896-25.033,18.26-25.033c10.9,0,17.733,9.304,17.733,24.752
	c0,19.851-10.706,25.031-17.917,25.031H150.227z"/>
<path fill="#FFFFFF" d="M186.932,276.271c0,1.203,0.22,2.328,0.476,3.082c1.202,4.033,3.24,5.024,4.873,5.024
	c4.639,0,6.51-5.877,6.51-15.274c0-8.556-1.978-14.447-6.562-14.447c-2.273,0-4.188,2.469-4.848,5.121
	c-0.229,0.834-0.448,2.133-0.448,3.029V276.271z M174.942,225.189h11.989v25.119h0.193c2.361-3.707,5.507-5.824,10.073-5.824
	c9.038,0,13.579,10.277,13.579,23.715c0,16.979-6.771,26.068-15.547,26.068c-4.181,0-6.965-1.854-9.477-6.552H185.5l-0.667,5.771
	h-10.294c0.176-3.996,0.402-9.469,0.402-13.789V225.189L174.942,225.189z"/>
<path fill="#FFFFFF" d="M239.508,264.783c0.062-6.771-1.924-11.516-5.728-11.516c-4.339,0-6.184,6.352-6.314,11.516H239.508z
	 M227.422,273.26c0.141,8.721,4.726,11.559,10.417,11.559c3.608,0,6.701-0.801,8.985-1.659l1.615,8.625
	c-3.18,1.368-8.09,2.229-12.798,2.229c-12.867,0-19.894-8.793-19.894-23.811c0-16.117,8.15-25.797,18.796-25.797
	c10.285,0,15.984,8.555,15.984,22.52c0,3.197-0.132,4.998-0.343,6.402L227.422,273.26z"/>
<polygon fill="#FFFFFF" points="173.845,7.771 250.539,7.771 250.539,191.383 "/>
<polygon fill="#FFFFFF" points="119.811,7.771 43.073,7.771 43.073,191.383 "/>
<polygon fill="#FFFFFF" points="146.837,75.427 195.697,191.373 163.683,191.373 149.067,154.441 113.294,154.441 "/>
</svg>
