<?xml version="1.0" encoding="utf-8"?>
<!-- Generator: Adobe Illustrator 16.0.4, SVG Export Plug-In . SVG Version: 6.00 Build 0)  -->
<!DOCTYPE svg PUBLIC "-//W3C//DTD SVG 1.1//EN" "http://www.w3.org/Graphics/SVG/1.1/DTD/svg11.dtd">
<svg version="1.1"
	 id="svg2" xmlns:dc="http://purl.org/dc/elements/1.1/" xmlns:rdf="http://www.w3.org/1999/02/22-rdf-syntax-ns#" xmlns:svg="http://www.w3.org/2000/svg" xmlns:cc="http://creativecommons.org/ns#"
	 xmlns="http://www.w3.org/2000/svg" xmlns:xlink="http://www.w3.org/1999/xlink" x="0px" y="0px" width="1000px"
	 height="328.561px" viewBox="0 0 1000 328.561" enable-background="new 0 0 1000 328.561" xml:space="preserve">
<path id="path2998" fill="#FFFFFF" d="M261.271,119.053H151.663v32.525h77.736c-3.84,45.609-41.787,65.06-77.605,65.06
	c-45.826,0-85.813-36.056-85.813-86.592c0-49.23,38.119-87.144,85.915-87.144c36.875,0,58.604,23.507,58.604,23.507l22.774-23.583
	c0,0-29.23-32.542-82.542-32.542C82.845,10.282,30.328,67.578,30.328,129.464c0,60.642,49.402,119.773,122.133,119.773
	c63.968,0,110.793-43.82,110.793-108.621c0-13.671-1.985-21.572-1.985-21.572L261.271,119.053z"/>
<path id="path3000" fill="#FFFFFF" d="M351.059,95.497c-44.976,0-77.208,35.163-77.208,76.171c0,41.615,31.263,77.431,77.736,77.431
	c42.07,0,76.537-32.155,76.537-76.537C428.124,121.695,388.032,95.497,351.059,95.497L351.059,95.497z M351.506,125.664
	c22.117,0,43.076,17.882,43.076,46.695c0,28.201-20.869,46.592-43.178,46.592c-24.511,0-43.848-19.631-43.848-46.816
	C307.556,145.532,326.654,125.664,351.506,125.664L351.506,125.664z"/>
<path id="path3005" fill="#FFFFFF" d="M518.975,95.497c-44.976,0-77.208,35.163-77.208,76.171c0,41.615,31.264,77.431,77.736,77.431
	c42.07,0,76.536-32.155,76.536-76.537C596.039,121.695,555.948,95.497,518.975,95.497L518.975,95.497z M519.422,125.664
	c22.117,0,43.076,17.882,43.076,46.695c0,28.201-20.869,46.592-43.178,46.592c-24.511,0-43.849-19.631-43.849-46.816
	C475.472,145.532,494.57,125.664,519.422,125.664L519.422,125.664z"/>
<path id="path3007" fill="#FFFFFF" d="M683.675,95.578c-41.282,0-73.731,36.157-73.731,76.739c0,46.228,37.619,76.883,73.019,76.883
	c21.89,0,33.528-8.689,42.122-18.662v15.145c0,26.497-16.089,42.364-40.373,42.364c-23.459,0-35.226-17.443-39.314-27.342
	l-29.517,12.34c10.472,22.141,31.551,45.23,69.076,45.23c41.045,0,72.329-25.854,72.329-80.073V100.196h-32.2v13.01
	c-9.901-10.669-23.442-17.625-41.41-17.625V95.578z M686.663,125.684c20.239,0,41.022,17.282,41.022,46.796
	c0,29.999-20.739,46.532-41.471,46.532c-22.008,0-42.486-17.87-42.486-46.247C643.729,143.28,664.997,125.684,686.663,125.684
	L686.663,125.684z"/>
<path id="path3011" fill="#FFFFFF" d="M900.457,95.395c-38.941,0-71.638,30.982-71.638,76.698c0,48.375,36.444,77.064,75.377,77.064
	c32.495,0,52.438-17.776,64.341-33.704l-26.549-17.665c-6.89,10.691-18.407,21.142-37.628,21.142
	c-21.592,0-31.519-11.823-37.669-23.275l102.979-42.731l-5.347-12.522C954.376,115.879,931.17,95.4,900.46,95.4L900.457,95.395z
	 M901.798,124.932c14.032,0,24.131,7.46,28.419,16.404l-68.771,28.745C858.481,147.828,879.564,124.932,901.798,124.932
	L901.798,124.932z"/>
<path id="path3015" fill="#FFFFFF" d="M779.724,244.598h33.827V18.226h-33.827V244.598z"/>
</svg>
