<?xml version="1.0" encoding="utf-8"?>
<!-- Generator: Adobe Illustrator 21.0.0, SVG Export Plug-In . SVG Version: 6.00 Build 0)  -->
<svg version="1.1" id="Layer_1" xmlns="http://www.w3.org/2000/svg" xmlns:xlink="http://www.w3.org/1999/xlink" x="0px" y="0px"
	 viewBox="0 0 252 62" style="enable-background:new 0 0 252 62;" xml:space="preserve">
<style type="text/css">
	.st0{fill:#FFFFFF;}
</style>
<path class="st0" d="M89.3,42.5c-0.6,0-2.8,0.1-3.3,0.1V42c0.9-0.2,1.5-1.1,1.5-1.8v-6.6H77v6.6c0,0.7,0.6,1.5,1.5,1.8v0.6
	c-0.5,0-2.7-0.1-3.3-0.1c-0.5,0-2.6,0.1-3.1,0.1V42c0.9-0.2,1.5-1.1,1.5-1.8V26.4c0-0.7-0.5-1.5-1.5-1.8v-0.6c0.5,0,2.6,0.1,3.1,0.1
	c0.6,0,2.8-0.1,3.3-0.1v0.6c-0.9,0.2-1.5,1.1-1.5,1.8v5.4h10.5v-5.4c0-0.7-0.5-1.5-1.5-1.8v-0.6c0.5,0,2.6,0.1,3.3,0.1
	c0.5,0,2.6-0.1,3.1-0.1v0.6c-0.9,0.2-1.5,1.1-1.5,1.8v13.8c0,0.7,0.6,1.5,1.5,1.8v0.6C91.9,42.6,89.8,42.5,89.3,42.5 M111.9,42.1
	c0.9-0.6,1.9-1.1,1.9-1.1l-0.3-0.7c-0.2,0.1-0.7,0.2-1,0.2c-0.5,0-1-0.4-1-1.8V23.9H111l-5.1,2v0.5c1.5,0.3,2.2,1,2.2,2.4v9.4
	c-0.9,1.1-2.6,2.4-4.6,2.4c-3.1,0-3.8-2.5-3.8-5.6V23.9h-0.5l-5.1,2v0.5c1.5,0.3,2.2,1,2.2,2.4v8.7c0,3,1.6,5.4,5.4,5.4
	c2.7,0,4.9-1.4,6.4-3c0.2,1.6,1.4,2.8,2,3.4C110.3,43.4,111.2,42.6,111.9,42.1 M141.3,42.5c0.6,0,3.1,0.1,3.7,0.1v-0.5
	c-1.1-0.4-2-0.8-2-1.7V29.3c0-3-1.1-5.4-4.9-5.4c-2.7,0-5,1.4-6.6,2.9c-0.6-1.7-1.9-2.9-4.5-2.9c-2.7,0-4.5,1.4-6.1,2.9l-0.2-2.9
	h-0.5l-4.9,2v0.5c1.5,0.3,2.3,1,2.3,2.4v11.6c0,0.8-1,1.3-1.9,1.7v0.5c0.5,0,3-0.1,3.6-0.1c0.6,0,3.1,0.1,3.7,0.1v-0.5
	c-1.1-0.4-2-0.8-2-1.7V28.6c0.9-1.1,2.4-2.4,4.4-2.4c3.1,0,3.3,2.5,3.3,5.6v8.6c0,0.8-1,1.3-1.9,1.7v0.5c0.5,0,3-0.1,3.6-0.1
	c0.6,0,3.1,0.1,3.7,0.1v-0.5c-1.1-0.4-2-0.8-2-1.7V29.3c0-0.4,0-0.8,0-1.1c1-1,2.7-2,4.5-2c3.1,0,3.3,2.5,3.3,5.6v8.6
	c0,0.8-1,1.3-1.9,1.7v0.5C138.3,42.6,140.7,42.5,141.3,42.5 M163.1,40.3c-0.2,0.1-0.7,0.2-1,0.2c-0.5,0-1-0.4-1-1.8v-9.2
	c0-3-1.1-5.6-6.3-5.6c-2.6,0-4.5,0.4-6.2,0.9v3.6h0.6c1.1-1.9,2.5-2.9,4.7-2.9c2.7,0,3.9,1.6,3.9,3.6v2.9c-1,0-3.8,0-4.7,0.2
	c-3.2,0.6-6.4,2.3-6.4,5.6c0,3.6,2.4,5.2,5.7,5.2c2.3,0,4.4-0.9,5.7-2.3c0.4,1.2,1.2,2.2,1.8,2.8c0,0,0.9-0.8,1.6-1.2
	c0.9-0.6,1.9-1.1,1.9-1.1L163.1,40.3z M157.8,38.3c-0.9,1.5-2.7,2.5-4.5,2.5c-1.7,0-3-1.2-3-3.2c0-2.8,2.3-4.2,4.9-4.2h2.6V38.3z
	 M180.5,42.5c0.6,0,3.1,0.1,3.7,0.1v-0.5c-1.1-0.4-2-0.8-2-1.7V29.3c0-3-2.2-5.4-6-5.4c-2.7,0-4.7,1.4-6.3,2.9l-0.2-2.9h-0.5l-4.9,2
	v0.5c1.5,0.3,2.2,1,2.2,2.4v11.6c0,0.8-1,1.3-1.9,1.7v0.5c0.5,0,3-0.1,3.6-0.1c0.6,0,3.1,0.1,3.7,0.1v-0.5c-1.1-0.4-2-0.8-2-1.7
	V28.6c0.9-1.1,2.6-2.4,4.6-2.4c3.1,0,4.4,2.5,4.4,5.6v8.6c0,0.8-1,1.3-1.9,1.7v0.5C177.4,42.6,179.9,42.5,180.5,42.5 M189.8,42.5
	c0.6,0,3.1,0.1,3.7,0.1v-0.5c-1.1-0.4-2-0.8-2-1.7V23.9h-0.5l-5.1,2v0.5c1.5,0.3,2.2,1,2.2,2.4v11.6c0,0.8-1,1.3-1.9,1.7v0.5
	C186.8,42.6,189.3,42.5,189.8,42.5 M202.2,42.9c2.5,0,4.2-2.3,4.7-3.2l-0.7-0.7c-0.6,0.6-1.4,1.3-2.7,1.3c-1.4,0-2.1-0.8-2.1-3.1
	V25.9h5.4v-1.7h-5.4v-5.1h-1.5c-0.4,2.1-1,3.8-2.2,5l-2.4,0.7v1.1h2.7v11.9C198,41.9,200,42.9,202.2,42.9 M212.8,42.5
	c0.6,0,3.1,0.1,3.7,0.1v-0.5c-1.1-0.4-2-0.8-2-1.7V23.9H214l-5.1,2v0.5c1.5,0.3,2.3,1,2.3,2.4v11.6c0,0.8-1,1.3-1.9,1.7v0.5
	C209.7,42.6,212.2,42.5,212.8,42.5 M227.3,23.9c-4.8,0-8.8,3.7-8.8,9.5c0,5.7,3.3,9.5,9.5,9.5c3.5,0,5.5-1.7,6.4-2.8l-0.8-0.8
	c-1.1,1.1-2.7,1.5-5.1,1.5c-4.2,0-7-3.8-6.4-8.9h12.5c0.1-0.2,0.1-0.6,0.1-0.9C235,27.2,232,23.9,227.3,23.9z M231.2,30.4h-8.9
	c0.4-2.2,2.1-4.9,5-4.9C230.1,25.5,231.5,28.2,231.2,30.4z M243.6,42.9c4.3,0,7.1-1.9,7.1-5.4c0-2-1.2-3.2-2.2-3.7l-5.6-2.7
	c-1.5-0.7-2-1.4-2-2.8c0-1.6,1.4-2.8,3.5-2.8c2.3,0,3.9,1.3,4.9,3h0.6v-3.8c-1.5-0.4-3.7-0.9-5.6-0.9c-3.5,0-6.8,1.9-6.8,5.6
	c0,2.2,1.1,3.5,2.9,4.4l5.5,2.7c0.9,0.4,1.5,1.1,1.5,2.2c0,1.6-1.4,2.6-3.9,2.6c-2.3,0-3.7-1-4.9-3.2h-0.6V42
	C239.6,42.5,241.8,42.9,243.6,42.9 M76.8,16.6L76.8,16.6l-2-3.3h-1.4v4.7h1v-3.4h0l2.1,3.4h1.4v-4.7h-1V16.6z M80.6,13.3l-2,4.7h1.2
	l0.4-1h1.8l0.4,1h1.2l-2.1-4.7H80.6z M80.4,16.2l0.6-1.5l0.6,1.5H80.4z M83.1,14.2h1.4v3.8h1v-3.8h1.4v-0.9h-3.8V14.2z M87.6,18.1h1
	v-4.7h-1V18.1z M92.1,13.2c-1.5,0-2.6,1-2.6,2.5c0,1.5,1.1,2.5,2.6,2.5c1.5,0,2.6-1,2.6-2.5C94.6,14.2,93.6,13.2,92.1,13.2z
	 M92.1,17.2c-0.9,0-1.5-0.6-1.5-1.5c0-0.9,0.6-1.5,1.5-1.5c0.9,0,1.5,0.6,1.5,1.5C93.6,16.6,93,17.2,92.1,17.2z M99,16.6L99,16.6
	l-2-3.3h-1.4v4.7h1v-3.4h0l2.1,3.4h1.4v-4.7h-1V16.6z M102.8,13.3l-2,4.7h1.2l0.4-1h1.8l0.4,1h1.2l-2.1-4.7H102.8z M102.6,16.2
	l0.6-1.5l0.6,1.5H102.6z M107.5,13.3h-1v4.7h3v-1h-1.9V13.3z M112.9,16.1h2.1v-1h-2.1v-0.9h2.2v-1h-3.2v4.7h3.3v-1h-2.3V16.1z
	 M119.7,16.6L119.7,16.6l-2-3.3h-1.4v4.7h1v-3.4h0l2.1,3.4h1.4v-4.7h-1V16.6z M123.5,13.3h-1.6v4.7h1.7c1.4,0,2.7-0.8,2.7-2.4
	C126.3,14,125,13.3,123.5,13.3z M123.5,17.1h-0.5v-2.8h0.6c0.9,0,1.6,0.4,1.6,1.4C125.2,16.7,124.5,17.1,123.5,17.1z M129.5,13.2
	c-1.5,0-2.6,1-2.6,2.5c0,1.5,1.1,2.5,2.6,2.5c1.5,0,2.6-1,2.6-2.5C132.1,14.2,131,13.2,129.5,13.2z M129.5,17.2
	c-0.9,0-1.5-0.6-1.5-1.5c0-0.9,0.6-1.5,1.5-1.5c0.9,0,1.5,0.6,1.5,1.5C131,16.6,130.4,17.2,129.5,17.2z M137.3,16.4L137.3,16.4
	l-1-3.1h-1l-1,3h0l-0.8-3h-1.1l1.4,4.7h0.9l1-3.3h0l1,3.3h0.9l1.4-4.7h-1.1L137.3,16.4z M142.5,16.4L142.5,16.4l-1.1-3.1h-1.6v4.7h1
	v-3.6h0l1.2,3.6h0.8l1.2-3.6h0v3.6h1v-4.7h-1.6L142.5,16.4z M147.5,16.1h2.1v-1h-2.1v-0.9h2.2v-1h-3.2v4.7h3.3v-1h-2.3V16.1z
	 M154.3,16.6L154.3,16.6l-2-3.3h-1.4v4.7h1v-3.4h0l2.1,3.4h1.4v-4.7h-1V16.6z M156,14.2h1.4v3.8h1v-3.8h1.4v-0.9H156V14.2z
	 M162.2,18.1h1v-1.8h2v-1h-2v-1h2.1v-1h-3.2V18.1z M168.6,13.2c-1.5,0-2.6,1-2.6,2.5c0,1.5,1.1,2.5,2.6,2.5c1.5,0,2.6-1,2.6-2.5
	C171.2,14.2,170.1,13.2,168.6,13.2z M168.6,17.2c-0.9,0-1.5-0.6-1.5-1.5c0-0.9,0.6-1.5,1.5-1.5c0.9,0,1.5,0.6,1.5,1.5
	C170.1,16.6,169.5,17.2,168.6,17.2z M175.7,14.8c0-1.1-0.8-1.4-1.8-1.4h-1.8v4.7h1v-1.9h0.5l1,1.9h1.3l-1.2-2
	C175.4,15.9,175.7,15.4,175.7,14.8z M173.8,15.3h-0.6v-1.1h0.7c0.4,0,0.8,0.1,0.8,0.5C174.7,15.3,174.2,15.3,173.8,15.3z
	 M177.9,14.2h1.4v3.8h1v-3.8h1.4v-0.9h-3.8V14.2z M185.4,15.1h-2v-1.8h-1v4.7h1v-2h2v2h1v-4.7h-1V15.1z M188.7,17.1v-1h2.1v-1h-2.1
	v-0.9h2.2v-1h-3.2v4.7h3.3v-1H188.7z M34.2,30.9c0-1.8-1.4-3.2-3.2-3.2c-1.8,0-3.2,1.5-3.2,3.2c0,1.8,1.5,3.2,3.2,3.2
	C32.8,34.2,34.2,32.7,34.2,30.9 M30.3,22.3c0.1,0.4,0.2,1.4,0.6,1.4c0.4,0,0.6-1,0.6-1.4L33,2.5c0.1-1.6-0.5-1.9-2-1.9
	c-1.4,0-2.1,0.3-2,1.9L30.3,22.3z M36.6,24.3c-0.3,0.3-0.8,1.2-0.6,1.5c0.3,0.3,1.1-0.3,1.5-0.5l14.9-13c1.2-1.1,1-1.7,0-2.7
	c-1-1-1.7-1.3-2.7,0L36.6,24.3z M39.6,30.3c-0.4,0.1-1.4,0.2-1.4,0.6c0,0.4,1,0.6,1.4,0.6l19.8,1.4c1.6,0.1,1.9-0.5,1.9-2
	c0-1.4-0.3-2.1-1.9-2L39.6,30.3z M37.6,36.6c-0.3-0.3-1.2-0.8-1.5-0.6c-0.3,0.3,0.3,1.1,0.6,1.5l13,14.9c1.1,1.2,1.7,1,2.7,0
	c1-1,1.3-1.7,0-2.7L37.6,36.6z M31.7,39.6c-0.1-0.4-0.2-1.4-0.6-1.4c-0.4,0-0.6,1-0.6,1.4L29,59.3c-0.1,1.6,0.5,1.9,2,1.9
	c1.4,0,2.1-0.3,2-1.9L31.7,39.6z M25.4,37.5c0.3-0.3,0.8-1.2,0.6-1.5c-0.3-0.3-1.1,0.3-1.5,0.5l-14.9,13c-1.2,1.1-1,1.7,0,2.7
	c1,1,1.7,1.2,2.7,0L25.4,37.5z M22.4,31.6c0.4-0.1,1.4-0.2,1.4-0.6c0-0.4-1-0.6-1.4-0.6L2.6,29c-1.6-0.1-1.9,0.5-1.9,2
	c0,1.4,0.3,2.1,1.9,2L22.4,31.6z M24.4,25.3c0.3,0.3,1.2,0.8,1.5,0.6c0.3-0.3-0.3-1.1-0.6-1.5l-13-14.9c-1.1-1.2-1.7-1-2.7,0
	c-1,1-1.3,1.7,0,2.7L24.4,25.3z M34.6,21.8c2-6.4,9.2-7.4,10.7-12.3c0.9-2.9-0.8-6-3.7-6.9c-3.6-1.1-5.5,0.1-5.8,1
	c-0.1,0.2,0,0.4,0.2,0.5c0.6,0.2,1.4-0.9,3.2-0.3c2.1,0.7,3.1,2.9,2.5,4.9c-1.1,3.6-6.9,7.5-8.2,11.6c-0.1,0.5-1.2,3.6-0.3,3.9
	c0.6,0.2,0.7,0,0.8-0.6C34.3,23.1,34.4,22.4,34.6,21.8 M40,27c6-3.1,11.7,1.3,16.3-1.1c2.7-1.4,3.7-4.8,2.3-7.5
	c-1.7-3.3-4-3.8-4.8-3.4c-0.2,0.1-0.3,0.3-0.2,0.5c0.3,0.6,1.6,0.4,2.5,2.1c1,2,0.1,4.2-1.7,5.2c-3.3,1.7-10.2,0.5-14,2.4
	c-0.4,0.2-3.4,1.8-3,2.6c0.3,0.5,0.5,0.5,1,0.2C38.9,27.7,39.4,27.3,40,27 M40.1,34.5c6.4,2,7.4,9.2,12.3,10.7
	c2.9,0.9,6-0.8,6.9-3.6c1.1-3.6-0.1-5.5-1-5.8c-0.2-0.1-0.4,0-0.5,0.2c-0.2,0.6,0.9,1.4,0.3,3.2c-0.7,2.1-2.9,3.1-4.9,2.5
	c-3.6-1.1-7.5-6.9-11.6-8.2c-0.5-0.1-3.6-1.2-3.9-0.3c-0.2,0.6,0,0.7,0.6,0.8C38.8,34.2,39.5,34.3,40.1,34.5 M34.9,39.9
	c3.1,6-1.3,11.7,1.1,16.3c1.4,2.7,4.8,3.7,7.5,2.3c3.3-1.7,3.8-4,3.4-4.8c-0.1-0.2-0.3-0.3-0.5-0.2c-0.6,0.3-0.4,1.6-2.1,2.5
	c-2,1-4.2,0.1-5.2-1.7c-1.7-3.3-0.5-10.2-2.4-14c-0.2-0.4-1.8-3.4-2.6-3c-0.5,0.3-0.5,0.5-0.2,1C34.2,38.8,34.6,39.3,34.9,39.9
	 M27.4,40c-2,6.4-9.2,7.4-10.7,12.3c-0.9,2.9,0.8,6,3.7,6.9c3.6,1.1,5.5-0.1,5.8-1c0.1-0.2,0-0.4-0.2-0.5c-0.7-0.2-1.4,0.9-3.2,0.3
	c-2.1-0.7-3.1-2.9-2.5-4.9c1.1-3.6,6.9-7.5,8.2-11.6c0.1-0.5,1.2-3.6,0.3-3.9c-0.6-0.2-0.7,0-0.8,0.6C27.7,38.8,27.6,39.4,27.4,40
	 M22,34.8c-6,3.1-11.7-1.3-16.3,1.1c-2.7,1.4-3.7,4.8-2.3,7.5c1.7,3.3,4,3.8,4.8,3.4c0.2-0.1,0.3-0.3,0.2-0.5
	c-0.3-0.6-1.6-0.4-2.5-2.1c-1-2-0.1-4.2,1.7-5.2c3.3-1.7,10.2-0.5,14-2.4c0.4-0.2,3.4-1.8,3-2.6c-0.3-0.5-0.5-0.5-1-0.2
	C23.1,34.1,22.6,34.5,22,34.8 M21.9,27.4c-6.4-2-7.4-9.2-12.3-10.7c-2.9-0.9-6,0.8-6.9,3.7c-1.1,3.6,0.1,5.5,1,5.8
	c0.2,0.1,0.4,0,0.5-0.2c0.2-0.7-0.9-1.4-0.3-3.2c0.7-2.1,2.9-3.1,4.9-2.5c3.6,1.1,7.5,6.9,11.6,8.2c0.5,0.1,3.6,1.2,3.9,0.3
	c0.2-0.6,0-0.7-0.6-0.8C23.2,27.6,22.5,27.6,21.9,27.4 M27.1,22C24,16,28.3,10.3,26,5.7C24.6,3,21.2,2,18.5,3.4
	c-3.3,1.7-3.8,4-3.4,4.8c0.1,0.2,0.3,0.3,0.5,0.2c0.6-0.3,0.4-1.6,2.1-2.5c2-1,4.2-0.1,5.2,1.7c1.7,3.3,0.5,10.2,2.4,14
	c0.2,0.4,1.8,3.4,2.6,3c0.5-0.3,0.5-0.5,0.2-1C27.8,23,27.4,22.5,27.1,22"/>
</svg>
