<?xml version="1.0" encoding="utf-8"?>
<!-- Generator: Adobe Illustrator 16.0.4, SVG Export Plug-In . SVG Version: 6.00 Build 0)  -->
<!DOCTYPE svg PUBLIC "-//W3C//DTD SVG 1.1//EN" "http://www.w3.org/Graphics/SVG/1.1/DTD/svg11.dtd">
<svg version="1.1" id="Ebene_1" xmlns="http://www.w3.org/2000/svg" xmlns:xlink="http://www.w3.org/1999/xlink" x="0px" y="0px"
	 width="423.5px" height="330.5px" viewBox="0 0 423.5 330.5" enable-background="new 0 0 423.5 330.5" xml:space="preserve">
<path fill="#FFFFFF" d="M340.316,105.402c-6.166,0-11.52,5.234-11.52,10.221h0.001V237.15c0,6.693,5.279,10.619,11.359,10.619
	c6.077,0,11.805-4.111,11.805-10.619V115.622C351.962,110.716,346.482,105.402,340.316,105.402z M343.278,237.151
	c0,1.019-1.229,2.285-3.123,2.335c-1.895,0.037-3.088-1.366-3.088-2.335V115.622c0-0.795,1.069-2.036,3.088-2.036
	s3.123,1.111,3.123,2.037V237.151z"/>
<path fill="#FFFFFF" d="M275.02,115.622c0-4.887,5.65-10.221,11.611-10.221c5.949,0,11.557,5.16,11.557,10.221v31.527h-8.688
	v-31.527c0-0.913-1.695-2.037-2.869-2.037c-1.18,0-2.918,1.124-2.918,2.037v122.259c0,1.255,1.676,2.335,2.918,2.335
	c1.236,0,2.869-0.969,2.869-2.335v-36.389h8.688v36.389c0,6.583-5.514,10.619-11.557,10.619c-6.047,0-11.611-4.123-11.611-10.619
	V115.622z"/>
<path fill="#FFFFFF" d="M222.076,115.622c0-5.26,4.795-10.221,10.772-10.221c5.98,0,11.435,4.726,11.435,10.221v31.527h-8.802
	v-31.527c0-0.944-1.061-2.037-2.444-2.037c-1.248,0-2.689,1.136-2.689,2.037v23.243c0,8.284,4.217,21.61,7.619,33.133
	c3.404,11.535,6.85,26.525,6.85,34.784v31.099c0,7.129-5.438,10.619-11.481,10.619c-6.041,0-11.258-3.949-11.258-10.619v-36.389
	h8.271v36.389c0,1.155,1.223,2.335,2.986,2.335c1.77,0,2.801-1.13,2.801-2.335v-31.099c0-8.259-3.98-23.82-7.172-34.784
	c-3.192-10.964-6.887-24.849-6.887-33.133V115.622z"/>
<polygon fill="#FFFFFF" points="172.027,105.402 191.103,105.402 191.103,112.947 181.951,112.947 181.951,168.479 191.103,168.479 
	191.103,176.331 181.951,176.331 181.951,240.553 194.562,240.553 194.562,248.501 172.027,248.501 "/>
<polygon fill="#FFFFFF" points="118.25,105.402 128.061,105.402 133.973,171.999 133.973,105.402 141.412,105.402 141.412,248.501 
	133.973,248.501 125.279,163.309 125.279,248.501 118.251,248.501 118.251,105.402 "/>
<path fill="#FFFFFF" d="M64.473,105.402h8.867l0.1,132.479c0,1.306,1.124,2.335,2.664,2.335c1.359,0,2.553-1.029,2.553-2.335
	l-0.101-132.479h9.085l0.101,132.479c0,6.508-5.348,10.619-11.581,10.619c-6.234,0-11.588-3.949-11.588-10.619L64.473,105.402z"/>
<rect x="10.001" y="302.701" fill="#FFFFFF" width="396.643" height="13.141"/>
<rect x="27.917" y="278.83" fill="#FFFFFF" width="360.974" height="13.936"/>
<rect x="46.397" y="255.767" fill="#FFFFFF" width="324.707" height="13.935"/>
<rect x="46.397" y="86.157" fill="#FFFFFF" width="324.707" height="13.438"/>
<polygon fill="#FFFFFF" points="73.589,74.958 208.303,33.359 341.098,74.958 302.057,74.958 208.303,45.927 113.077,74.958 
	73.589,74.958 "/>
<polygon fill="#FFFFFF" points="46.397,60.175 208.304,10 371.105,60.175 371.105,74.958 208.304,25.68 46.396,74.958 
	46.396,60.175 "/>
</svg>
