<?xml version="1.0" encoding="utf-8"?>
<!-- Generator: Adobe Illustrator 16.0.4, SVG Export Plug-In . SVG Version: 6.00 Build 0)  -->
<!DOCTYPE svg PUBLIC "-//W3C//DTD SVG 1.1//EN" "http://www.w3.org/Graphics/SVG/1.1/DTD/svg11.dtd">
<svg version="1.1" id="Ebene_1" xmlns="http://www.w3.org/2000/svg" xmlns:xlink="http://www.w3.org/1999/xlink" x="0px" y="0px"
	 width="400px" height="400px" viewBox="0 0 400 400" enable-background="new 0 0 400 400" xml:space="preserve">
<circle fill="#FFFFFF" cx="200.724" cy="61.6" r="45"/>
<path fill="#FFFFFF" d="M291.578,51.758L266.08,77.255c20.625,18.143,33.645,44.727,33.645,74.355c0,54.676-44.324,99-99.001,99
	c-54.676,0-99-44.323-99-99c0-29.628,13.021-56.212,33.646-74.355l-25.498-25.498c-27.123,24.692-44.147,60.284-44.147,99.853
	c0,74.559,60.441,135,135,135c74.561,0,135.001-60.44,135.001-135C335.725,112.042,318.699,76.45,291.578,51.758z"/>
<path fill="#FFFFFF" d="M191.724,133.611L148.14,90.026c-17.382,14.856-28.416,36.926-28.416,61.584
	c0,41.691,31.503,76.012,72,80.49V133.611z M253.31,90.026l-43.585,43.584v98.49c40.498-4.479,72-38.798,72-80.49
	C281.725,126.952,270.691,104.883,253.31,90.026z"/>
<path fill="#FFFFFF" d="M379.047,340.055h-11.703l-3.09-7.688h-16.461l-3.146,7.688h-11.703l16.762-37.906h12.634L379.047,340.055z
	 M361.629,325.773l-5.552-13.844l-5.604,13.844H361.629z M327.836,340.055H316.43v-37.906h11.406V340.055z M309.316,321.799
	c0,3.881-0.707,6.996-2.12,9.346c-1.413,2.353-3.077,4.256-4.991,5.713c-2.715,2.131-6.512,3.197-11.393,3.197h-0.573h-19.859
	v-37.906h15.734c2.368,0,4.395,0.123,6.079,0.371c1.685,0.246,3.2,0.594,4.549,1.041c1.348,0.449,2.494,0.951,3.441,1.51
	c0.947,0.558,1.793,1.156,2.541,1.797c1.294,1.058,2.43,2.307,3.404,3.746c0.977,1.441,1.752,3.109,2.325,5.005
	C309.029,317.514,309.316,319.575,309.316,321.799z M297.691,321.307c0-3.078-0.588-5.479-1.763-7.201
	c-1.175-1.722-2.587-2.875-4.236-3.457c-1.648-0.584-3.329-0.875-5.042-0.875h-4.864v22.438h4.864c2.988,0,5.574-0.711,7.763-2.131
	C296.598,328.659,297.691,325.734,297.691,321.307z M262.699,340.055h-28.552v-37.906h28.086v7.625h-16.68v6.938h15.914v7.625
	h-15.914v8.095h17.146V340.055z M224.531,340.055h-11.406v-21.969l-10.315,12.719h-0.903l-10.343-12.719v21.969h-11.094v-37.906
	h10.356l11.654,14.22l11.709-14.22h10.344v37.906H224.531z M170.882,340.055h-11.406v-37.906h11.406V340.055z M154.445,340.055
	H140.5l-14.492-17.75v17.75h-11.406v-37.906h11.406v16.97l13.727-16.97h12.414l-14.108,17.75L154.445,340.055z M104.984,340.055
	H93.578v-37.906h11.405V340.055L104.984,340.055z M88.273,302.148l-16.405,38.406H65.25l-9.845-22.344l-10.09,22.344h-6.672
	l-16.078-38.406h11.84l7.875,21l9.023-21h8.176l8.859,21l8.229-21H88.273z"/>
<path fill="#FFFFFF" d="M326.218,381.055h-6.105l-11.801-12.656v12.656h-6.781v-22.75h6.076l11.769,12.625v-12.625h6.844
	L326.218,381.055L326.218,381.055z M297.722,369.671c0,2.119-0.488,4.067-1.467,5.851c-0.979,1.778-2.435,3.193-4.367,4.242
	c-1.936,1.049-4.289,1.572-7.063,1.572c-2.81,0-5.187-0.546-7.13-1.639c-1.944-1.092-3.391-2.528-4.336-4.309
	c-0.944-1.781-1.418-3.687-1.418-5.719c0-2.041,0.472-3.949,1.41-5.725c0.939-1.775,2.385-3.205,4.334-4.293
	c1.951-1.086,4.33-1.631,7.14-1.631c2.098,0,3.969,0.312,5.612,0.936c1.646,0.622,2.996,1.466,4.058,2.529
	c1.059,1.066,1.862,2.306,2.407,3.72C297.448,366.622,297.722,368.109,297.722,369.671z M290.753,369.671
	c0-0.851-0.125-1.626-0.377-2.329s-0.633-1.312-1.144-1.83c-0.51-0.519-1.131-0.922-1.862-1.211
	c-0.734-0.289-1.584-0.434-2.548-0.434c-1.84,0-3.284,0.533-4.338,1.604c-1.051,1.067-1.575,2.469-1.575,4.2
	c0,1.733,0.528,3.138,1.586,4.211c1.057,1.074,2.498,1.61,4.327,1.61c1.261,0,2.332-0.247,3.22-0.743
	c0.887-0.496,1.561-1.185,2.021-2.062C290.522,371.811,290.753,370.805,290.753,369.671z M267.683,381.055h-6.844v-22.75h6.844
	V381.055z M256.771,363.836h-8.332v17.219h-6.844v-17.219h-8.334v-5.531h23.51V363.836z M235.319,381.055h-7.02l-1.854-4.595h-9.875
	l-1.887,4.595h-7.021l10.056-22.75h7.578L235.319,381.055z M224.87,372.492l-3.329-8.312l-3.362,8.312H224.87z M207.551,370.102
	c0,2.33-0.424,4.201-1.271,5.611c-0.848,1.412-1.846,2.555-2.991,3.43c-1.627,1.274-3.904,1.912-6.83,1.912h-0.345h-11.906v-22.75
	h9.434c1.419,0,2.634,0.073,3.645,0.221c1.01,0.147,1.919,0.355,2.727,0.623c0.807,0.27,1.496,0.57,2.063,0.904
	s1.075,0.691,1.522,1.074c0.776,0.635,1.457,1.387,2.041,2.252c0.586,0.865,1.05,1.867,1.396,3.008
	C207.378,367.525,207.551,368.764,207.551,370.102z M200.582,369.805c0-1.852-0.354-3.296-1.058-4.332
	c-0.704-1.035-1.55-1.729-2.538-2.08c-0.987-0.351-1.994-0.525-3.021-0.525h-2.915v13.5h2.915c1.791,0,3.341-0.428,4.651-1.282
	C199.927,374.23,200.582,372.469,200.582,369.805z M178.462,381.055h-6.105l-11.801-12.656v12.656h-6.781v-22.75h6.077
	l11.768,12.625v-12.625h6.844L178.462,381.055L178.462,381.055z M148.391,370.854c0,1.946-0.364,3.605-1.09,4.979
	c-0.727,1.372-1.688,2.457-2.885,3.256c-1.197,0.8-2.486,1.373-3.869,1.724c-1.383,0.35-2.762,0.523-4.139,0.523
	c-1.925,0-3.796-0.327-5.615-0.982c-1.82-0.656-3.342-1.771-4.566-3.349c-1.224-1.573-1.836-3.625-1.836-6.149v-12.551h6.844v10.791
	c0,1.5,0.217,2.739,0.647,3.721c0.431,0.98,1.033,1.697,1.804,2.15c0.771,0.454,1.681,0.682,2.729,0.682
	c1.005,0,1.896-0.224,2.672-0.672c0.775-0.449,1.38-1.16,1.812-2.136c0.433-0.975,0.648-2.213,0.648-3.713v-10.823h6.844V370.854z
	 M120.419,369.671c0,2.119-0.489,4.067-1.467,5.851c-0.979,1.778-2.435,3.193-4.368,4.242c-1.935,1.049-4.289,1.572-7.064,1.572
	c-2.808,0-5.185-0.546-7.129-1.639c-1.945-1.092-3.39-2.528-4.335-4.309c-0.945-1.781-1.417-3.687-1.417-5.719
	c0-2.041,0.47-3.949,1.409-5.725c0.938-1.775,2.385-3.205,4.335-4.293c1.95-1.086,4.33-1.631,7.138-1.631
	c2.099,0,3.97,0.312,5.613,0.936c1.645,0.622,2.997,1.466,4.057,2.529c1.061,1.066,1.863,2.306,2.409,3.72
	C120.146,366.622,120.419,368.109,120.419,369.671z M113.451,369.671c0-0.851-0.126-1.626-0.379-2.329
	c-0.252-0.703-0.633-1.312-1.142-1.83c-0.509-0.519-1.131-0.922-1.864-1.211s-1.583-0.434-2.546-0.434
	c-1.84,0-3.286,0.533-4.337,1.604c-1.051,1.068-1.577,2.469-1.577,4.2c0,1.733,0.528,3.138,1.585,4.211
	c1.058,1.074,2.5,1.61,4.329,1.61c1.259,0,2.333-0.247,3.221-0.743c0.887-0.496,1.561-1.185,2.021-2.062
	S113.451,370.805,113.451,369.671z M91.512,371.836H82.08v9.219h-6.845v-22.75h16.275v4.562h-9.432v4.406h9.432L91.512,371.836
	L91.512,371.836z"/>
</svg>
